<svg width="19" height="18" viewBox="0 0 19 18" fill="none" xmlns="http://www.w3.org/2000/svg">
<path fill-rule="evenodd" clip-rule="evenodd" d="M9.64963 7.92857V10.5H13.8934C13.7224 11.6036 12.6106 13.7357 9.64963 13.7357C7.09483 13.7357 5.01036 11.6143 5.01036 9C5.01036 6.38571 7.09483 4.26429 9.64963 4.26429C11.1034 4.26429 12.0762 4.88571 12.632 5.42143L14.663 3.46071C13.3589 2.23929 11.67 1.5 9.64963 1.5C5.51277 1.5 2.16693 4.85357 2.16693 9C2.16693 13.1464 5.51277 16.5 9.64963 16.5C13.9682 16.5 16.833 13.4571 16.833 9.17143C16.833 8.67857 16.7796 8.30357 16.7154 7.92857H9.64963Z" fill="white"/>
</svg>
